<svg id="Layer_1" data-name="Layer 1" xmlns="http://www.w3.org/2000/svg" viewBox="0 0 186.41 96.13"><defs><style>.cls-1{fill:#ccc;}.cls-2{fill:#a5a5a5;}.cls-3{fill:#fa0;}</style></defs><title>JK-Logo-2020-w</title><path class="cls-1" d="M39.52,62.2C23.8,67.61,8.94,80.1,6.44,95.59c-1,11.73-1.07,9.91,1.77,19.57A37.71,37.71,0,0,0,28.6,137.89c2.95.91,7.26,2.55,10.61,2.81,2.31.19,1.18-.12,3.21.06s-.07-3.55-1.78-6.31c-2.7-4-4.3-11.55-2.34-11.55.37,0,1.72,1.23,3,2.83,3.69,4.67,14.37,9.83,21.13,10.19,4.3.13,7,1.11,9.09,3.08l1.93,1.76,9-2.5c9-5,18.55-12.16,22.85-19.41,2.1-5.69,3.32-9.21,4.06-37.47l.58-18.87-14.06.1h-14V77.45h9.83v15c0,17.69-1.23,22.72-6.51,28.87-4.33,3.85-16.11,11.58-19.7,11.22-2.07-.22.64-12.53.91-14.78.08-.92,1-1.34,7.36-1.6,4-.25,7.62-3.07,8.85-4.43,1.48-2.52,1.63-4.69,0-8.14,0-5.79-3.23-9-4-10.17-1.87-2.37-4-2.12-5-3.1-.74-.71.41-1,1-2.15,0,0,1.63-2.6-.88-1.32-1.36.57-4.24,1.67-4.79.83.55-1.33,2.12-2.92.9-2.68-2.25.45-8.7,3.76-10.75,6-3.18,3.38-1.6,2.52-6.46-1.5C46.4,83.35,36,82.19,28.38,85.85,25.8,87,22.33,88.51,22,88.51s1.1-2.34,3.19-5.28c9.58-14,29-18.55,43-11.8,5.26,5.31,12,3.81,12-.36,0-3.69-6.72-7.55-15.44-10.13C56.3,58.48,48.37,59.25,39.52,62.2Zm37.65,39.87c0,1.08-1.54,2-2.89,1.35a3,3,0,0,1-1.46-1.88c-.18-1.19,1.39-2.11,2.49-2.11S77.23,100.91,77.17,102.07Z" transform="translate(-5.81 -44.66)"/><path class="cls-2" d="M115,61.59s-.14,18.46,0,40.13v39.07h18.55l-.37-19.17-.37-19,18.18,19,18.3,19.17h23L171,120.15,149.72,99.63,169.5,80.35l19.78-19.29-10.45-.12H168.39L150.58,79.49,132.77,98.16V61.55S116.32,61.42,115,61.59Z" transform="translate(-5.81 -44.66)"/><circle class="cls-3" cx="89.57" cy="6.42" r="6.42"/></svg>